<svg xmlns="http://www.w3.org/2000/svg" version="1.1" xmlns:xlink="http://www.w3.org/1999/xlink" xmlns:svgjs="http://svgjs.dev/svgjs" width="1500" height="541" viewBox="0 0 1500 541"><g transform="matrix(1,0,0,1,-0.9090909090909918,-0.393007616405896)"><svg viewBox="0 0 396 143" data-background-color="#35185a" preserveAspectRatio="xMidYMid meet" height="541" width="1500" xmlns="http://www.w3.org/2000/svg" xmlns:xlink="http://www.w3.org/1999/xlink"><g id="tight-bounds" transform="matrix(1,0,0,1,0.2400000000000091,0.1038818653346425)"><svg viewBox="0 0 395.52 142.7922362693307" height="142.7922362693307" width="395.52"><g><svg viewBox="0 0 677.0500556126149 244.43135999999998" height="142.7922362693307" width="395.52"><g transform="matrix(1,0,0,1,281.53005561261483,43.64205198907375)"><svg viewBox="0 0 395.52 157.14725602185248" height="157.14725602185248" width="395.52"><g id="textblocktransform"><svg viewBox="0 0 395.52 157.14725602185248" height="157.14725602185248" width="395.52" id="textblock"><g><svg viewBox="0 0 395.52 157.14725602185248" height="157.14725602185248" width="395.52"><g transform="matrix(1,0,0,1,0,0)"><svg width="395.52" viewBox="3.13 -38.28 98.31 39.06" height="157.14725602185248" data-palette-color="#ffffff"><path d="M31.1 0.78L21.26 0.78Q15.77 0.78 12.23 0.04 8.69-0.71 6.7-2.71 4.71-4.71 3.92-8.47 3.13-12.23 3.13-18.26L3.13-18.26 3.13-19.24Q3.13-24.22 3.61-27.6 4.1-30.98 5.3-33.11 6.49-35.23 8.56-36.35 10.62-37.48 13.75-37.88 16.87-38.28 21.26-38.28L21.26-38.28 31.1-38.28Q35.5-38.28 38.62-37.88 41.75-37.48 43.81-36.35 45.87-35.23 47.07-33.11 48.27-30.98 48.75-27.6 49.24-24.22 49.24-19.24L49.24-19.24 49.24-18.26Q49.24-12.23 48.45-8.47 47.66-4.71 45.67-2.71 43.68-0.71 40.14 0.04 36.6 0.78 31.1 0.78L31.1 0.78ZM21.26-3.27L21.26-3.27 31.1-3.27Q34.59-3.27 36.99-3.52 39.38-3.76 40.88-4.57 42.38-5.37 43.18-7.01 43.97-8.64 44.26-11.38 44.56-14.11 44.56-18.26L44.56-18.26 44.56-19.24Q44.56-23.54 44.26-26.32 43.97-29.1 43.18-30.71 42.38-32.32 40.88-33.07 39.38-33.81 36.99-34.02 34.59-34.23 31.1-34.23L31.1-34.23 21.26-34.23Q17.77-34.23 15.38-34.02 12.99-33.81 11.49-33.07 9.99-32.32 9.19-30.71 8.4-29.1 8.11-26.32 7.81-23.54 7.81-19.24L7.81-19.24 7.81-18.26Q7.81-14.11 8.11-11.38 8.4-8.64 9.19-7.01 9.99-5.37 11.49-4.57 12.99-3.76 15.38-3.52 17.77-3.27 21.26-3.27ZM80.34 0L75.66 0 75.66-15.63 54.56-37.5 60.81-37.5 78-19.14 95.19-37.5 101.44-37.5 80.34-15.63 80.34 0Z" opacity="1" transform="matrix(1,0,0,1,0,0)" fill="#ffffff" class="wordmark-text-0" data-fill-palette-color="primary" id="text-0"></path></svg></g></svg></g></svg></g></svg></g><g><svg viewBox="0 0 244.43135999999998 244.43135999999998" height="244.43135999999998" width="244.43135999999998"><g><svg xmlns="http://www.w3.org/2000/svg" xmlns:xlink="http://www.w3.org/1999/xlink" version="1.1" x="0" y="0" viewBox="0.5 0.5 47 47" enable-background="new 0 0 48 48" xml:space="preserve" height="244.43135999999998" width="244.43135999999998" class="icon-icon-0" data-fill-palette-color="accent" id="icon-0"><g fill="#ffffff" data-fill-palette-color="accent"><rect x="16.3" y="16.3" fill="#ffffff" width="15.4" height="15.4" data-fill-palette-color="accent"></rect><path fill="#ffffff" d="M8.2 39.8H39.8V8.2H8.2zM14.2 14.2H33.7V33.7H14.2z" data-fill-palette-color="accent"></path><rect x="12.1" y="0.5" fill="#ffffff" width="2.1" height="4.2" data-fill-palette-color="accent"></rect><rect x="17.6" y="0.5" fill="#ffffff" width="2.1" height="4.2" data-fill-palette-color="accent"></rect><rect x="23" y="0.5" fill="#ffffff" width="2.1" height="4.2" data-fill-palette-color="accent"></rect><rect x="28.4" y="0.5" fill="#ffffff" width="2.1" height="4.2" data-fill-palette-color="accent"></rect><rect x="33.8" y="0.5" fill="#ffffff" width="2.1" height="4.2" data-fill-palette-color="accent"></rect><rect x="12.1" y="43.3" fill="#ffffff" width="2.1" height="4.2" data-fill-palette-color="accent"></rect><rect x="17.6" y="43.3" fill="#ffffff" width="2.1" height="4.2" data-fill-palette-color="accent"></rect><rect x="23" y="43.3" fill="#ffffff" width="2.1" height="4.2" data-fill-palette-color="accent"></rect><rect x="28.4" y="43.3" fill="#ffffff" width="2.1" height="4.2" data-fill-palette-color="accent"></rect><rect x="33.8" y="43.3" fill="#ffffff" width="2.1" height="4.2" data-fill-palette-color="accent"></rect><rect x="43.3" y="12.1" fill="#ffffff" width="4.2" height="2.1" data-fill-palette-color="accent"></rect><rect x="43.3" y="17.5" fill="#ffffff" width="4.2" height="2.1" data-fill-palette-color="accent"></rect><rect x="43.3" y="23" fill="#ffffff" width="4.2" height="2.1" data-fill-palette-color="accent"></rect><rect x="43.3" y="28.4" fill="#ffffff" width="4.2" height="2.1" data-fill-palette-color="accent"></rect><rect x="43.3" y="33.8" fill="#ffffff" width="4.2" height="2.1" data-fill-palette-color="accent"></rect><rect x="0.5" y="12.1" fill="#ffffff" width="4.2" height="2.1" data-fill-palette-color="accent"></rect><rect x="0.5" y="17.5" fill="#ffffff" width="4.2" height="2.1" data-fill-palette-color="accent"></rect><rect x="0.5" y="23" fill="#ffffff" width="4.2" height="2.1" data-fill-palette-color="accent"></rect><rect x="0.5" y="28.4" fill="#ffffff" width="4.2" height="2.1" data-fill-palette-color="accent"></rect><rect x="0.5" y="33.8" fill="#ffffff" width="4.2" height="2.1" data-fill-palette-color="accent"></rect></g></svg></g></svg></g></svg></g><defs></defs></svg><rect width="395.52" height="142.7922362693307" fill="none" stroke="none" visibility="hidden"></rect></g></svg></g></svg>